<svg class="imgsetting" width="30px" height="30px" version="1.1" xmlns="http://www.w3.org/2000/svg" xmlns:xlink="http://www.w3.org/1999/xlink" x="0px" y="0px" viewBox="0 0 512 512" enable-background="new 0 0 512 512" xml:space="preserve"><path d="M201.875,141.084h-30v-30.563c0-11.747,9.523-21.271,21.271-21.271h125.709 c11.747,0,21.271,9.523,21.271,21.271v30.563h-30v-17.063c0-3.739-3.031-6.771-6.771-6.771h-94.709 c-3.739,0-6.771,3.031-6.771,6.771V141.084z M462,161.084V422.75H50V161.084H462z M347.818,228.582l-4.721-10.858 c-44.045,27.402-67.739,48.047-103.599,88.742c-19.074-13.598-29.838-19.846-46.809-28.057l-14.509,13.412 c29.016,26.895,44.784,44.631,68.409,72.456C284.896,295.584,311.497,260.279,347.818,228.582z"/></svg>